<?xml version="1.0" encoding="UTF-8" standalone="no"?>
<!-- Created with Inkscape (http://www.inkscape.org/) -->
<svg xmlns:rdf="http://www.w3.org/1999/02/22-rdf-syntax-ns#" xmlns="http://www.w3.org/2000/svg" xmlns:cc="http://creativecommons.org/ns#" xmlns:xlink="http://www.w3.org/1999/xlink" xmlns:dc="http://purl.org/dc/elements/1.1/" xmlns:svg="http://www.w3.org/2000/svg" xmlns:inkscape="http://www.inkscape.org/namespaces/inkscape" xmlns:sodipodi="http://sodipodi.sourceforge.net/DTD/sodipodi-0.dtd" xmlns:ns1="http://sozi.baierouge.fr" id="svg2986" viewBox="0 0 744.09 1052.4" version="1.1" inkscape:version="0.91 r13725">
  <title id="title3044">sixteenth note</title>
  <defs id="defs2988">
    <linearGradient id="linearGradient3033" y2="333.89" gradientUnits="userSpaceOnUse" x2="490.53" gradientTransform="matrix(2.0779 0 0 2.0779 -518.08 -281.8)" y1="489.14" x1="382.34">
      <stop id="stop3015" style="stop-color:#000000;stop-opacity:.82639" offset="0"/>
      <stop id="stop3017" style="stop-color:#000000" offset="1"/>
    </linearGradient>
  </defs>
  <g id="layer1">
    <path id="path3" style="stroke-linejoin:round;fill-rule:evenodd;stroke:#000000;stroke-linecap:round;stroke-width:5.9241;fill:url(#linearGradient3033)" d="m405.69 224.28c-27.693 12.634-18.245 57.254-19.335 86.185-1.1892 107.52 3.5802 210.59 0.66265 318.09-0.188 35.283-34.706 24.684-56.812 18.011-47.827-6.0307-98.444 12.647-131.26 47.772-25.557 27.982-37.247 77.623-7.5783 106.92 26.23 25.588 66.736 30.145 101.44 24.377 37.208-8.3736 71.683-28.449 99.589-54.146 21.635-19.671 26-48.743 26.852-77.758 1.3095-40.253-0.62362-80.752 2.364-120.85-0.0361-29.307-3.586-74.222 32.042-60.444 25.098 17.621 47.474 41.212 62.641 68.072 13.797 30.342 24.555 63.962 19.637 97.673-3.1264 26.779 26.627 19.408 25.662-1.862 16.306-48.252 2.9619-103.28-29.777-141.53-33.729-46.829-83.161-82.097-106.04-136.47-15.258-32.923 21.129-53.285 44.923-26.675 24.732 24.117 49.907 50.141 58.181 84.928 9.2285 23.966 11.078 49.87 8.8527 75.199 13.219 33.997 30.634-12.133 30.463-28.976 7.831-44.298-8.6758-90.222-37.721-123.71-32.97-44.7-80.17-78.97-102.37-131.23-6.03-8.49-9.33-24.37-22.41-23.57z"/>
  </g>
  <metadata>
    <rdf:RDF>
      <cc:Work>
        <dc:format>image/svg+xml</dc:format>
        <dc:type rdf:resource="http://purl.org/dc/dcmitype/StillImage"/>
        <cc:license rdf:resource="http://creativecommons.org/licenses/publicdomain/"/>
        <dc:publisher>
          <cc:Agent rdf:about="http://openclipart.org/">
            <dc:title>Openclipart</dc:title>
          </cc:Agent>
        </dc:publisher>
        <dc:title>Sixteenth Note (Stem Facing Up)</dc:title>
        <dc:date>2010-10-28T16:49:49</dc:date>
        <dc:description>a single stem facing up sixteenth note</dc:description>
        <dc:source>https://openclipart.org/detail/92959/sixteenth-note-(stem-facing-up)-by-jaschon</dc:source>
        <dc:creator>
          <cc:Agent>
            <dc:title>jaschon</dc:title>
          </cc:Agent>
        </dc:creator>
        <dc:subject>
          <rdf:Bag>
            <rdf:li>black and white</rdf:li>
            <rdf:li>flag</rdf:li>
            <rdf:li>music</rdf:li>
            <rdf:li>music note</rdf:li>
            <rdf:li>musical notation</rdf:li>
            <rdf:li>semiquaver</rdf:li>
            <rdf:li>sixteenth</rdf:li>
            <rdf:li>sound</rdf:li>
            <rdf:li>staff</rdf:li>
          </rdf:Bag>
        </dc:subject>
      </cc:Work>
      <cc:License rdf:about="http://creativecommons.org/licenses/publicdomain/">
        <cc:permits rdf:resource="http://creativecommons.org/ns#Reproduction"/>
        <cc:permits rdf:resource="http://creativecommons.org/ns#Distribution"/>
        <cc:permits rdf:resource="http://creativecommons.org/ns#DerivativeWorks"/>
      </cc:License>
    </rdf:RDF>
  </metadata>
</svg>
